<svg width="17" height="16" viewBox="0 0 17 16" fill="none" xmlns="http://www.w3.org/2000/svg">
<path d="M1.86902 5.8147L1.13902 6.5447C0.936973 6.7388 0.776223 6.97172 0.666412 7.22948C0.556602 7.48724 0.5 7.76452 0.5 8.0447C0.5 8.32488 0.556602 8.60216 0.666412 8.85992C0.776223 9.11768 0.936973 9.3506 1.13902 9.5447L7.02 15.4837C7.15939 15.6263 7.32162 15.7446 7.5 15.8337L7.5 8.6347L1.86902 5.8147Z" fill="white"/>
<path d="M15.131 5.8147L15.861 6.5447C16.063 6.7388 16.2238 6.97172 16.3336 7.22948C16.4434 7.48724 16.5 7.76452 16.5 8.0447C16.5 8.32488 16.4434 8.60216 16.3336 8.85992C16.2238 9.11768 16.063 9.3506 15.861 9.5447L9.98 15.4837C9.84061 15.6263 9.67838 15.7446 9.5 15.8337L9.5 8.6347L15.131 5.8147Z" fill="white"/>
<path d="M13.7189 4.32463L10.0389 0.634636C9.84406 0.433841 9.6109 0.274198 9.35324 0.165184C9.09558 0.0561704 8.81865 0 8.53888 0C8.2591 0 7.98216 0.0561704 7.7245 0.165184C7.46684 0.274198 7.2337 0.433841 7.03888 0.634636L3.34888 4.32463L8.51888 6.90463L13.7189 4.32463Z" fill="white"/>
</svg>
